PathFileType	4	(X/Y/Z)	/Users/itak/Documents/Research/Walk-IL/dataset/trc/00075_00006.trc
DataRate	CameraRate	NumFrames	NumMarkers	Units	OrigDataRate	OrigDataStartFrame	OrigNumFrames
100.000000	100.000000	4	53	mm	100.000000	0	729
Frame#	Time	RPSI			LPSI			L3			STRN			T10			C7			CLAV			RBAK			LBAK			LSHO			LUPA			LAEL			LAOL			LWTS			LWPS			LFRA			LIFD			LHPS			LHTS			RSHO			RUPA			RAEL			RAOL			RWTS			RWPS			RFRA			RIFD			RHTS			RHPS			RBHD			LFHD			RFHD			LBHD			LHIP			RHIP			RASI			LASI			LKNE			LTHI			LANK			LTIP			LTOE			LMT1			LMT5			LHEE			RKNE			RTHI			RANK			RTIP			RTOE			RMT1			RMT5			RHEE			
		X1	Y1	Z1	X2	Y2	Z2	X3	Y3	Z3	X4	Y4	Z4	X5	Y5	Z5	X6	Y6	Z6	X7	Y7	Z7	X8	Y8	Z8	X9	Y9	Z9	X10	Y10	Z10	X11	Y11	Z11	X12	Y12	Z12	X13	Y13	Z13	X14	Y14	Z14	X15	Y15	Z15	X16	Y16	Z16	X17	Y17	Z17	X18	Y18	Z18	X19	Y19	Z19	X20	Y20	Z20	X21	Y21	Z21	X22	Y22	Z22	X23	Y23	Z23	X24	Y24	Z24	X25	Y25	Z25	X26	Y26	Z26	X27	Y27	Z27	X28	Y28	Z28	X29	Y29	Z29	X30	Y30	Z30	X31	Y31	Z31	X32	Y32	Z32	X33	Y33	Z33	X34	Y34	Z34	X35	Y35	Z35	X36	Y36	Z36	X37	Y37	Z37	X38	Y38	Z38	X39	Y39	Z39	X40	Y40	Z40	X41	Y41	Z41	X42	Y42	Z42	X43	Y43	Z43	X44	Y44	Z44	X45	Y45	Z45	X46	Y46	Z46	X47	Y47	Z47	X48	Y48	Z48	X49	Y49	Z49	X50	Y50	Z50	X51	Y51	Z51	X52	Y52	Z52	X53	Y53	Z53	

1	0	362.2687072753906	1034.566772460938	966.0344848632812	424.8187255859375	1027.679321289062	1130.910278320312	392.3194580078125	1079.785034179688	1057.10205078125	166.0696258544922	1285.497802734375	1122.287719726562	420.9688720703125	1211.785888671875	1056.350952148438	374.7080688476562	1481.059814453125	1070.154052734375	198.7449951171875	1399.333862304688	1113.745971679688	410.8887023925781	1339.486206054688	983.82421875	420.779296875	1444.387084960938	1163.301391601562	338.3958129882812	1452.844604492188	1259.497802734375	368.9071350097656	1324.842163085938	1331.522216796875	343.8150329589844	1110.905395507812	1356.1015625	380.088134765625	1093.451538085938	1256.721069335938	222.4119873046875	877.9694213867188	1324.748901367188	295.2772216796875	862.622802734375	1364.351318359375	319.8649597167969	1003.286560058594	1370.21240234375	175.75341796875	698.6725463867188	1339.370971679688	255.8103790283203	783.8299560546875	1371.160278320312	195.7618865966797	798.4683837890625	1336.951293945312	268.1387939453125	1444.805908203125	916.0869140625	260.5425415039062	1374.136352539062	853.9376831054688	271.0582885742188	1108.309692382812	824.9015502929688	275.6851196289062	1088.539428710938	922.6350708007812	130.1086273193359	863.181396484375	896.996826171875	186.5071258544922	845.285400390625	832.9133911132812	253.7260894775391	1028.783935546875	822.182861328125	112.4903335571289	674.0503540039062	897.3218383789062	104.771369934082	759.5211181640625	901.721923828125	149.8702087402344	756.7128295898438	839.16845703125	299.1465148925781	1685.764404296875	1158.736694335938	118.164665222168	1660.802856445312	1044.633544921875	123.3133926391602	1660.265380859375	1170.29638671875	287.7757873535156	1676.540405273438	1021.705200195312	354.2485961914062	961.3438110351562	1247.126831054688	281.6407470703125	970.94287109375	903.869873046875	162.2424926757812	977.9385375976562	971.626953125	230.8163757324219	969.2387084960938	1232.482421875	312.018798828125	496.3748779296875	1208.519165039062	339.51025390625	640.3701782226562	1239.883911132812	436.0727233886719	50.25591659545898	1193.24755859375	384.0229187011719	265.6539001464844	1213.176147460938	232.3106689453125	43.92450714111328	1234.143920898438	269.1470642089844	43.25288772583008	1171.148315429688	343.9578552246094	40.8953742980957	1254.780029296875	468.8364868164062	48.35063552856445	1107.945556640625	229.255615234375	516.0885620117188	949.7728881835938	200.3287963867188	788.4669799804688	927.6348876953125	317.5286254882812	43.23376846313477	924.2395629882812	252.5712738037109	397.3337097167969	936.2421264648438	123.6232681274414	39.24903869628906	1026.952514648438	194.773681640625	44.56427764892578	1045.879516601562	194.7742462158203	46.17800521850586	948.6106567382812	380.78662109375	43.92000579833984	962.1840209960938	
2	0.01	362.3161926269531	1034.539306640625	966.035888671875	424.8964538574219	1027.639770507812	1130.910766601562	392.4269714355469	1079.768676757812	1057.1005859375	166.2122497558594	1285.489379882812	1122.208251953125	421.1152648925781	1211.797607421875	1056.293701171875	374.7830505371094	1481.053955078125	1070.118896484375	198.9094696044922	1399.319458007812	1113.671875	411.0396728515625	1339.498779296875	983.7857055664062	420.9551696777344	1444.369995117188	1163.2236328125	338.5221557617188	1452.834228515625	1259.448364257812	369.1563720703125	1324.83935546875	1331.482299804688	344.1666870117188	1110.930053710938	1356.14111328125	380.1524047851562	1093.414428710938	1256.682006835938	222.5241394042969	878.0899658203125	1325.111328125	295.5316162109375	862.6939697265625	1364.502563476562	320.12451171875	1003.318115234375	1370.306762695312	175.5206909179688	698.8689575195312	1339.935913085938	255.9227905273438	784.0597534179688	1371.5107421875	195.8080596923828	798.593994140625	1337.428466796875	268.2423095703125	1444.797119140625	916.0364990234375	260.6730651855469	1374.143798828125	853.8641967773438	271.2145080566406	1108.309936523438	824.7669067382812	275.8109741210938	1088.5068359375	922.5068969726562	130.1292724609375	863.2168579101562	896.787109375	186.5408172607422	845.3163452148438	832.6790771484375	253.8007659912109	1028.783325195312	822.0027465820312	112.3466720581055	674.0928344726562	896.8453369140625	104.5974655151367	759.5900268554688	901.3968505859375	149.7857360839844	756.772705078125	838.8297119140625	298.0889282226562	1686.307250976562	1158.43603515625	116.7874603271484	1659.394775390625	1045.324096679688	122.6481704711914	1658.9365234375	1170.952026367188	286.086181640625	1676.963745117188	1021.463500976562	354.3677062988281	961.3936767578125	1247.2265625	281.7234802246094	970.9356689453125	903.8895874023438	162.3055725097656	977.9468383789062	971.6130981445312	230.8725891113281	969.2565307617188	1232.4833984375	312.0088195800781	496.3743591308594	1208.5263671875	339.5029907226562	640.3699340820312	1239.886596679688	436.0733032226562	50.25538635253906	1193.248901367188	384.0041198730469	265.6482543945312	1213.156982421875	232.3121948242188	43.91786956787109	1234.148559570312	269.1467590332031	43.24247360229492	1171.15087890625	343.9609069824219	40.89336013793945	1254.783935546875	468.8341369628906	48.35017776489258	1107.935302734375	229.1921997070312	516.1024169921875	949.798583984375	200.3484802246094	788.4649047851562	927.6600341796875	317.5263366699219	43.23453903198242	924.2443237304688	252.5117034912109	397.3258361816406	936.2933349609375	123.6278228759766	39.24864959716797	1026.957153320312	194.7717742919922	44.56385803222656	1045.884643554688	194.7863464355469	46.19234085083008	948.6192016601562	380.7909851074219	43.91579437255859	962.1963500976562	
3	0.02	362.3906555175781	1034.506958007812	966.0305786132812	424.9905700683594	1027.592041015625	1130.908447265625	392.5618896484375	1079.75341796875	1057.093627929688	166.3839721679688	1285.480834960938	1122.104248046875	421.2895812988281	1211.818969726562	1056.220947265625	374.8714904785156	1481.055541992188	1070.068603515625	199.1035003662109	1399.3046875	1113.576782226562	411.2211608886719	1339.518310546875	983.7313232421875	421.1565551757812	1444.357788085938	1163.129028320312	338.6706848144531	1452.83203125	1259.384521484375	369.4400329589844	1324.844604492188	1331.432006835938	344.6015625	1110.96923828125	1356.1845703125	380.2403564453125	1093.381591796875	1256.632568359375	222.6864929199219	878.228759765625	1325.575073242188	295.8544311523438	862.7860107421875	1364.697998046875	320.4607849121094	1003.364013671875	1370.425170898438	175.2867889404297	699.1165771484375	1340.67431640625	256.1044006347656	784.3276977539062	1371.932739257812	195.8531951904297	798.7400512695312	1338.015502929688	268.3639221191406	1444.792236328125	915.968017578125	260.8215942382812	1374.155395507812	853.771484375	271.39404296875	1108.31396484375	824.6030883789062	275.9682006835938	1088.470947265625	922.3449096679688	130.1739044189453	863.2512817382812	896.5299072265625	186.6034240722656	845.3536376953125	832.384521484375	253.8922424316406	1028.7861328125	821.7810668945312	112.2388534545898	674.13232421875	896.2637329101562	104.439582824707	759.6459350585938	901.0037231445312	149.7210083007812	756.834228515625	838.4320068359375	296.7633056640625	1686.963500976562	1158.064697265625	115.0800704956055	1657.63330078125	1046.195556640625	121.8240280151367	1657.279174804688	1171.776733398438	283.9666748046875	1677.45947265625	1021.171447753906	354.509033203125	961.4432983398438	1247.327270507812	281.8315734863281	970.9240112304688	903.908447265625	162.3903198242188	977.9591064453125	971.5912475585938	230.9501190185547	969.2802734375	1232.478515625	311.9981994628906	496.374267578125	1208.533325195312	339.505126953125	640.372314453125	1239.888427734375	436.0749816894531	50.25509643554688	1193.249755859375	383.9768981933594	265.6397094726562	1213.1279296875	232.3116455078125	43.91090393066406	1234.151733398438	269.1465759277344	43.23212814331055	1171.1533203125	343.9653015136719	40.89064788818359	1254.7880859375	468.8312072753906	48.34793853759766	1107.925659179688	229.1169586181641	516.1173706054688	949.8320922851562	200.3788299560547	788.461669921875	927.685791015625	317.5218811035156	43.23553085327148	924.2518920898438	252.4396209716797	397.3165588378906	936.35595703125	123.6300659179688	39.24828720092773	1026.961669921875	194.7696075439453	44.56235122680664	1045.892700195312	194.7953033447266	46.20457458496094	948.6273193359375	380.7963256835938	43.91201400756836	962.2111206054688	
4	0.03	362.4966430664062	1034.472290039062	966.0158081054688	425.0960693359375	1027.540405273438	1130.9013671875	392.71826171875	1079.74267578125	1057.07861328125	166.5738983154297	1285.474243164062	1121.979614257812	421.4799499511719	1211.852661132812	1056.135864257812	374.968505859375	1481.068359375	1070.001953125	199.3126068115234	1399.291625976562	1113.465576171875	411.422607421875	1339.545288085938	983.660400390625	421.3656311035156	1444.355102539062	1163.022705078125	338.8311157226562	1452.843994140625	1259.307495117188	369.7332763671875	1324.863037109375	1331.372680664062	345.0935974121094	1111.026000976562	1356.227294921875	380.3498840332031	1093.361206054688	1256.575561523438	222.8978729248047	878.3746948242188	1326.117065429688	296.2326049804688	862.8978881835938	1364.932495117188	320.8621520996094	1003.426879882812	1370.562255859375	175.0919036865234	699.4030151367188	1341.564697265625	256.3650512695312	784.6122436523438	1372.4033203125	195.9006805419922	798.8981323242188	1338.682983398438	268.4949340820312	1444.793701171875	915.8816528320312	260.9753112792969	1374.170776367188	853.6634521484375	271.5804748535156	1108.324340820312	824.41796875	276.1511535644531	1088.435668945312	922.1536254882812	130.2507934570312	863.2782592773438	896.2400512695312	186.6988677978516	845.3963623046875	832.0414428710938	253.9951782226562	1028.794311523438	821.5267333984375	112.2152099609375	674.159423828125	895.6128540039062	104.3379135131836	759.6712036132812	900.5695190429688	149.6993255615234	756.8873901367188	838.0003051757812	295.22314453125	1687.694213867188	1157.640380859375	113.1207504272461	1655.591186523438	1047.21728515625	120.8810577392578	1655.364624023438	1172.739990234375	281.4998168945312	1677.99072265625	1020.84619140625	354.6623840332031	961.4857788085938	1247.412841796875	281.9626159667969	970.9073486328125	903.9222412109375	162.4949493408203	977.9750366210938	971.5602416992188	231.0501861572266	969.3094482421875	1232.464965820312	311.9884948730469	496.3752136230469	1208.539184570312	339.5204162597656	640.3775024414062	1239.88818359375	436.0776672363281	50.25511169433594	1193.250244140625	383.9431762695312	265.6277160644531	1213.089721679688	232.3085479736328	43.90460586547852	1234.153076171875	269.1467895507812	43.22324752807617	1171.1552734375	343.9705810546875	40.88747406005859	1254.7919921875	468.8276672363281	48.34380722045898	1107.91748046875	229.0358428955078	516.1321411132812	949.8718872070312	200.4208679199219	788.45703125	927.7091674804688	317.5148010253906	43.23684692382812	924.2627563476562	252.3607330322266	397.3069152832031	936.4255981445312	123.6290893554688	39.24808120727539	1026.965698242188	194.7671203613281	44.55979156494141	1045.9033203125	194.7989807128906	46.21280288696289	948.634033203125	380.8020629882812	43.90878677368164	962.22802734375	
